<svg width="20" height="20" viewBox="0 0 20 20" fill="none" xmlns="http://www.w3.org/2000/svg">
<path d="M16.2945 1.71335L3.27808 5.59444C2.29511 5.88732 2.22637 7.2526 3.17449 7.64286L7.97756 9.60936C8.16614 9.68656 8.38205 9.64135 8.52432 9.49547L11.485 6.45964C11.8755 6.06912 12.5087 6.06912 12.8992 6.45964C13.2897 6.85016 13.2897 7.48333 12.8992 7.87385L9.86315 10.8346C9.71724 10.9769 9.6723 11.1935 9.74956 11.3821L11.7174 16.1859C12.1073 17.132 13.4707 17.0634 13.7631 16.0824L17.6463 3.06485C17.8933 2.23773 17.1224 1.46707 16.2945 1.71335Z" fill="white"/>
<path d="M1.81283 11.6016C1.91024 11.6991 2.03769 11.7478 2.16501 11.7478C2.29296 11.7478 2.42041 11.6991 2.51732 11.6016L4.10231 10.0171C4.29725 9.82273 4.29725 9.50712 4.10231 9.31285C3.90785 9.11797 3.59276 9.11797 3.39782 9.31285L1.81283 10.8974C1.61789 11.0918 1.61789 11.4074 1.81283 11.6016Z" fill="white"/>
<path d="M3.44825 15.8225C3.32092 15.8225 3.19348 15.7738 3.09606 15.6763C2.90112 15.482 2.90112 15.1664 3.09606 14.972L6.07766 11.9913C6.2726 11.7964 6.58769 11.7964 6.78215 11.9913C6.97709 12.1856 6.97709 12.5012 6.78215 12.6956L3.80043 15.6769C3.7029 15.7743 3.57557 15.8225 3.44825 15.8225Z" fill="white"/>
<path d="M7.17179 16.9592C7.2692 17.0567 7.39665 17.1054 7.52397 17.1054C7.65192 17.1054 7.77937 17.0567 7.87628 16.9592L9.46127 15.3747C9.65621 15.1803 9.65621 14.8647 9.46127 14.6704C9.26681 14.4755 8.95172 14.4755 8.75678 14.6704L7.17179 16.2549C6.97685 16.4493 6.97685 16.7649 7.17179 16.9592Z" fill="white"/>
</svg>
